<svg xmlns="http://www.w3.org/2000/svg" xmlns:xlink="http://www.w3.org/1999/xlink" viewBox="0 0 164.08 45.34"><defs><style>.cls-1{isolation:isolate;}.cls-2{fill:#fff;}.cls-3{mix-blend-mode:multiply;}.cls-4{fill:#8cc63e;}.cls-5{fill:url(#GradientFill_1);}.cls-6{fill:url(#GradientFill_1-2);}.cls-7{fill:none;}.cls-8{fill:#9b045b;}.cls-9{fill:#007f7c;}.cls-10{fill:url(#GradientFill_1-3);}.cls-11{fill:url(#GradientFill_1-5);}.cls-12{fill:#03b7b8;}.cls-13{fill:#c23981;}</style><linearGradient id="GradientFill_1" x1="147.74" y1="30.86" x2="147.9" y2="30.86" gradientUnits="userSpaceOnUse"><stop offset="0" stop-color="#e1e44a"/><stop offset="0.62" stop-color="#44ab95"/><stop offset="1" stop-color="#007c8a"/></linearGradient><linearGradient id="GradientFill_1-2" x1="139.86" y1="14.5" x2="151.98" y2="14.5" xlink:href="#GradientFill_1"/><linearGradient id="GradientFill_1-3" x1="131.79" y1="30.93" x2="131.08" y2="30.93" xlink:href="#GradientFill_1"/><linearGradient id="GradientFill_1-5" x1="152.79" y1="14.5" x2="138.25" y2="14.5" xlink:href="#GradientFill_1"/></defs><g class="cls-1"><g id="Layer_2" data-name="Layer 2"><g id="_1" data-name="???? 1"><path class="cls-2" d="M3.59,17.88v-.49a.1.1,0,0,1,.11-.11h.72a.1.1,0,0,1,.11.11V21.2a.69.69,0,0,0,.13.47.61.61,0,0,0,.41.13h.5a.4.4,0,0,1,.45.45.43.43,0,0,1-.11.35.62.62,0,0,1-.34.07H4.91a1.58,1.58,0,0,1-.86-.2,1,1,0,0,1-.41-.7,1.44,1.44,0,0,1-.54.31,2.5,2.5,0,0,1-.69.1,2.37,2.37,0,0,1-.81-.13A1.67,1.67,0,0,1,1,21.68,1.74,1.74,0,0,1,.51,21a2.57,2.57,0,0,1-.15-.92,2.67,2.67,0,0,1,.18-1.05A1.76,1.76,0,0,1,1,18.38,1.71,1.71,0,0,1,1.69,18a3,3,0,0,1,.8-.11ZM2.42,21.3a1,1,0,0,0,.91-.37,1.89,1.89,0,0,0,.26-1.06V18.75H2.49a1.23,1.23,0,0,0-.86.3,1.41,1.41,0,0,0-.33,1.07,1.25,1.25,0,0,0,.29.89A1.15,1.15,0,0,0,2.42,21.3Zm-1-4.78c-.08,0-.12,0-.12-.11v-.82a.11.11,0,0,1,.12-.12h.76c.07,0,.11,0,.11.12v.82a.1.1,0,0,1-.11.11Zm1.37,0c-.08,0-.12,0-.12-.11v-.82a.11.11,0,0,1,.12-.12h.76c.08,0,.11,0,.11.12v.82a.1.1,0,0,1-.11.11Z"/><path class="cls-2" d="M5.58,22.67a.43.43,0,0,1-.31-.09.58.58,0,0,1-.07-.33.62.62,0,0,1,.07-.37c.05-.06.15-.08.31-.08H6.81a.53.53,0,0,1,.34.09.37.37,0,0,1,.11.32.48.48,0,0,1-.1.37.54.54,0,0,1-.35.09Z"/><path class="cls-2" d="M6.81,22.67a.52.52,0,0,1-.33-.08c-.08-.05-.11-.15-.11-.31a.53.53,0,0,1,.1-.38.48.48,0,0,1,.34-.1h.78A.59.59,0,0,0,8,21.67a.64.64,0,0,0,.13-.47v-3a.1.1,0,0,1,.11-.11H9a.1.1,0,0,1,.11.11v3.07a1.61,1.61,0,0,1-.3,1.07,1.28,1.28,0,0,1-1,.34Zm.49,2.09c-.08,0-.12,0-.12-.11v-.82c0-.07,0-.11.12-.11h.76a.1.1,0,0,1,.11.11v.82a.1.1,0,0,1-.11.11Zm1.37,0a.1.1,0,0,1-.11-.11v-.82a.1.1,0,0,1,.11-.11h.76a.1.1,0,0,1,.11.11v.82a.1.1,0,0,1-.11.11Z"/><path class="cls-2" d="M14.78,20.75a3.88,3.88,0,0,1-.1.93,1.31,1.31,0,0,1-.29.59,1,1,0,0,1-.5.31,2.6,2.6,0,0,1-.73.09H10.67c-.08,0-.12,0-.12-.11v-.65c0-.08,0-.11.12-.11h2.14a2.3,2.3,0,0,0,.51-.05.64.64,0,0,0,.29-.17.59.59,0,0,0,.13-.31,2.21,2.21,0,0,0,0-.48v-.9c0-.76-.43-1.14-1.28-1.14H11.19a.1.1,0,0,1-.11-.11V18a.1.1,0,0,1,.11-.11h1.66a2,2,0,0,1,1.39.48,1.93,1.93,0,0,1,.54,1.51Z"/><path class="cls-2" d="M17,24.91c-.08,0-.12,0-.12-.11v-.66c0-.07,0-.11.12-.11h1.34a1.79,1.79,0,0,0,.42-.05.74.74,0,0,0,.33-.17.74.74,0,0,0,.22-.32,1.6,1.6,0,0,0,.08-.53v-.29h-1.2a3,3,0,0,1-.89-.12,1.47,1.47,0,0,1-.68-.38,1.63,1.63,0,0,1-.43-.7A3.35,3.35,0,0,1,16,20.39a3.11,3.11,0,0,1,.18-1.11,2.05,2.05,0,0,1,.47-.79,1.86,1.86,0,0,1,.69-.46,2.31,2.31,0,0,1,.83-.15,2.08,2.08,0,0,1,1.56.57,2.6,2.6,0,0,1,.56,1.87V21.8h.78a.55.55,0,0,1,.34.09.41.41,0,0,1,.11.32.49.49,0,0,1-.11.38.58.58,0,0,1-.34.08H20.3v.27a2.43,2.43,0,0,1-.14.9,1.53,1.53,0,0,1-.39.61,1.6,1.6,0,0,1-.61.35,2.86,2.86,0,0,1-.8.11Zm1.21-6.16a1.05,1.05,0,0,0-.89.45A2,2,0,0,0,17,20.39a1.46,1.46,0,0,0,.32,1.1,1.29,1.29,0,0,0,.95.31h1.13V20.32a2,2,0,0,0-.28-1.15A1,1,0,0,0,18.18,18.75Z"/><path class="cls-2" d="M24.14,17.88a2.73,2.73,0,0,1,1.78.47,1.57,1.57,0,0,1,.57,1.28,2,2,0,0,1-.12.69,2.66,2.66,0,0,1-.3.61,2.79,2.79,0,0,1-.42.49,2.29,2.29,0,0,1-.45.35.45.45,0,0,0,.16,0h1.83a.64.64,0,0,1,.34.07.4.4,0,0,1,.11.32.52.52,0,0,1-.11.38.46.46,0,0,1-.34.1H25.6a3.87,3.87,0,0,1-.77-.07,2,2,0,0,1-.69-.28,2.35,2.35,0,0,1-.78.28,4.25,4.25,0,0,1-.74.07H21.09a.4.4,0,0,1-.45-.45.43.43,0,0,1,.11-.35.59.59,0,0,1,.34-.07h1.45l.39,0a2.74,2.74,0,0,0,.56-.11,3.24,3.24,0,0,0-.24-.76,2.81,2.81,0,0,0-.35-.56,3,3,0,0,0-.45-.42L22,19.57c-.07,0-.12-.08-.13-.12a.17.17,0,0,1,0-.1v-.68a.24.24,0,0,1,.11-.22l.35-.18a4.23,4.23,0,0,1,.51-.19,4.87,4.87,0,0,1,.63-.15A4.4,4.4,0,0,1,24.14,17.88Zm0,.87a3.31,3.31,0,0,0-.88.11,1.75,1.75,0,0,0-.51.19,3.3,3.3,0,0,1,1,.9,4,4,0,0,1,.62,1.4,3,3,0,0,0,.38-.29,2.22,2.22,0,0,0,.37-.38,1.92,1.92,0,0,0,.27-.46,1.37,1.37,0,0,0,.1-.52.9.9,0,0,0-.1-.46.81.81,0,0,0-.29-.29,1.28,1.28,0,0,0-.43-.15A3.1,3.1,0,0,0,24.14,18.75Z"/><path class="cls-2" d="M30.61,22.67a1.39,1.39,0,0,1-.63-.14,1,1,0,0,1-.41-.44,1.17,1.17,0,0,1-1.17.58H27.19a.55.55,0,0,1-.34-.08.36.36,0,0,1-.11-.31.48.48,0,0,1,.11-.38.46.46,0,0,1,.34-.1h1a.57.57,0,0,0,.41-.13.64.64,0,0,0,.13-.47v-2a.1.1,0,0,1,.11-.11h.72c.08,0,.11,0,.11.11V21a.64.64,0,0,0,.27.57,1.2,1.2,0,0,0,.72.2H31a.57.57,0,0,0,.41-.13.64.64,0,0,0,.13-.47v-2a.1.1,0,0,1,.11-.11h.72c.08,0,.12,0,.12.11v1.92a.59.59,0,0,0,.28.54,1.32,1.32,0,0,0,.73.18h.26a.61.61,0,0,0,.41-.13.7.7,0,0,0,.12-.47v-3c0-.07,0-.11.12-.11h.72a.1.1,0,0,1,.11.11V21a.64.64,0,0,0,.27.57,1.27,1.27,0,0,0,.74.2h.12a.55.55,0,0,1,.34.09.41.41,0,0,1,.11.32c0,.2,0,.32-.11.38a.58.58,0,0,1-.34.08h-.23a1.39,1.39,0,0,1-.63-.14,1.05,1.05,0,0,1-.42-.44,1.16,1.16,0,0,1-1.17.58h-.53a1.36,1.36,0,0,1-.63-.14,1.05,1.05,0,0,1-.42-.44,1.17,1.17,0,0,1-1.17.58Z"/><path class="cls-2" d="M36.35,22.67a.5.5,0,0,1-.33-.08.34.34,0,0,1-.12-.31A.52.52,0,0,1,36,21.9a.46.46,0,0,1,.34-.1h.71a.59.59,0,0,0,.41-.13.64.64,0,0,0,.13-.47v-6c0-.08,0-.12.11-.12h.72c.08,0,.11,0,.11.12v6.11a1.61,1.61,0,0,1-.3,1.07,1.28,1.28,0,0,1-1,.34Z"/><path class="cls-2" d="M41.06,22.56a.1.1,0,0,1-.11.11h-.72c-.08,0-.12,0-.12-.11V15.15a.11.11,0,0,1,.12-.12H41c.07,0,.11,0,.11.12Z"/><path class="cls-2" d="M51.23,22.67a1.1,1.1,0,0,1-.89-.36v.14a2.41,2.41,0,0,1-.68,1.81,2.76,2.76,0,0,1-2,.65,3.43,3.43,0,0,1-1.1-.17,2.19,2.19,0,0,1-.83-.47,2.08,2.08,0,0,1-.53-.77,2.66,2.66,0,0,1-.2-1.05,4,4,0,0,1,.22-1.28,4.3,4.3,0,0,1,.52-1c0-.05.08-.05.15,0l.62.34a.1.1,0,0,1,0,.15,5,5,0,0,0-.38.77,2.47,2.47,0,0,0-.19,1,1.87,1.87,0,0,0,.16.8,1.43,1.43,0,0,0,.43.51,1.6,1.6,0,0,0,.56.26,2.46,2.46,0,0,0,.59.08,1.81,1.81,0,0,0,1.18-.37,1.45,1.45,0,0,0,.46-1.2V19.16a.1.1,0,0,1,.11-.11h.72c.08,0,.12,0,.12.11v1.92a.59.59,0,0,0,.28.54,1.32,1.32,0,0,0,.73.18h.25a.57.57,0,0,0,.41-.13.64.64,0,0,0,.13-.47v-2c0-.08,0-.11.12-.11H53a.1.1,0,0,1,.11.11v1.92a.59.59,0,0,0,.28.54,1.32,1.32,0,0,0,.73.18h.26a.61.61,0,0,0,.41-.13.69.69,0,0,0,.13-.47v-3a.1.1,0,0,1,.11-.11h.72a.1.1,0,0,1,.11.11v3.07a1.61,1.61,0,0,1-.3,1.07,1.3,1.3,0,0,1-1,.34H54a1.39,1.39,0,0,1-.63-.14,1.05,1.05,0,0,1-.42-.44,1.17,1.17,0,0,1-1.17.58Z"/><path class="cls-2" d="M56.68,24.91a.1.1,0,0,1-.11-.11v-.66a.1.1,0,0,1,.11-.11h.26c.61,0,.91-.32.91-1V18.19a.1.1,0,0,1,.11-.11h.72a.1.1,0,0,1,.11.11v4.86a1.91,1.91,0,0,1-.46,1.39,1.81,1.81,0,0,1-1.35.47Z"/><path class="cls-2" d="M61.25,22.56c0,.08,0,.11-.11.11h-.72a.1.1,0,0,1-.11-.11V15.15c0-.08,0-.12.11-.12h.72c.08,0,.11,0,.11.12Z"/><path class="cls-2" d="M66.9,21a.62.62,0,0,0,.28.57,1.24,1.24,0,0,0,.73.2H68a.5.5,0,0,1,.33.09.38.38,0,0,1,.12.32.49.49,0,0,1-.11.38.61.61,0,0,1-.34.08H67.8a1.39,1.39,0,0,1-.68-.16.86.86,0,0,1-.43-.49,1,1,0,0,1-.53.51,2.38,2.38,0,0,1-.88.14H62.79a.1.1,0,0,1-.11-.11v-.65a.1.1,0,0,1,.11-.11h2.15a2.2,2.2,0,0,0,.5-.05.55.55,0,0,0,.29-.17.59.59,0,0,0,.14-.31,3.23,3.23,0,0,0,0-.48v-.9c0-.76-.42-1.14-1.28-1.14h-1.3c-.08,0-.11,0-.11-.11V18c0-.08,0-.11.11-.11H65a2,2,0,0,1,1.39.48,1.93,1.93,0,0,1,.54,1.51Z"/><path class="cls-2" d="M68.05,22.67a.43.43,0,0,1-.31-.09.58.58,0,0,1-.07-.33.62.62,0,0,1,.07-.37c.05-.06.15-.08.31-.08h1.23a.53.53,0,0,1,.34.09.37.37,0,0,1,.11.32.48.48,0,0,1-.1.37.54.54,0,0,1-.35.09Z"/><path class="cls-2" d="M72.68,22.75a2.69,2.69,0,0,1-.94-.15,1.63,1.63,0,0,1-.68-.48,1.06,1.06,0,0,1-.61.46,2.89,2.89,0,0,1-.68.09h-.49a.4.4,0,0,1-.45-.45.43.43,0,0,1,.11-.35.62.62,0,0,1,.34-.07h.57a.69.69,0,0,0,.24-.05.72.72,0,0,0,.23-.17,1,1,0,0,0,.16-.32,1.68,1.68,0,0,0,.06-.49,1.48,1.48,0,0,1,0-.21v-.24a2.6,2.6,0,0,1,.57-1.87,2.46,2.46,0,0,1,3.15,0,2.6,2.6,0,0,1,.57,1.87v.25c0,.08,0,.16,0,.24a1.1,1.1,0,0,0,.23.78.65.65,0,0,0,.46.21h.33a.55.55,0,0,1,.34.09.41.41,0,0,1,.11.32.49.49,0,0,1-.11.38.58.58,0,0,1-.34.08h-.58a2.33,2.33,0,0,1-.36-.08,1.25,1.25,0,0,1-.33-.16,1.08,1.08,0,0,1-.27-.29,1.63,1.63,0,0,1-.68.48A2.91,2.91,0,0,1,72.68,22.75Zm0-4a1,1,0,0,0-.92.42,2,2,0,0,0-.29,1.15,1.93,1.93,0,0,0,.29,1.18,1.08,1.08,0,0,0,.92.37,1.06,1.06,0,0,0,.91-.37,1.93,1.93,0,0,0,.29-1.18,2,2,0,0,0-.29-1.15A1,1,0,0,0,72.68,18.75Z"/><path class="cls-2" d="M75.81,22.67a.55.55,0,0,1-.34-.08.36.36,0,0,1-.11-.31.48.48,0,0,1,.11-.38.46.46,0,0,1,.34-.1h.71a.61.61,0,0,0,.41-.13.7.7,0,0,0,.12-.47v-6a.11.11,0,0,1,.12-.12h.72c.07,0,.11,0,.11.12v6.11a1.61,1.61,0,0,1-.3,1.07,1.31,1.31,0,0,1-1,.34Z"/><path class="cls-2" d="M80.52,22.56c0,.08,0,.11-.12.11h-.72a.1.1,0,0,1-.11-.11V15.15c0-.08,0-.12.11-.12h.72a.11.11,0,0,1,.12.12Z"/><path class="cls-2" d="M85.23,20.14c0-.05.08-.05.16,0l.62.34a.1.1,0,0,1,0,.15,5,5,0,0,0-.39.77,2.65,2.65,0,0,0-.18,1,1.73,1.73,0,0,0,.16.8,1.51,1.51,0,0,0,.42.51,1.68,1.68,0,0,0,.56.26,2.54,2.54,0,0,0,.6.08,1.81,1.81,0,0,0,1.18-.37,1.48,1.48,0,0,0,.46-1.2V15.15c0-.08,0-.12.11-.12h.72c.07,0,.11,0,.11.12V21a.62.62,0,0,0,.28.57,1.24,1.24,0,0,0,.73.2h.13a.5.5,0,0,1,.33.09.38.38,0,0,1,.12.32.49.49,0,0,1-.11.38.61.61,0,0,1-.34.08h-.24a1.13,1.13,0,0,1-.9-.36v.14a2.38,2.38,0,0,1-.68,1.81,2.73,2.73,0,0,1-2,.65,3.37,3.37,0,0,1-1.09-.17,2,2,0,0,1-.83-.47,2.23,2.23,0,0,1-.54-.77,2.85,2.85,0,0,1-.19-1.05,3.71,3.71,0,0,1,.22-1.28A4.71,4.71,0,0,1,85.23,20.14Z"/><path class="cls-2" d="M90.94,22.67a.43.43,0,0,1-.31-.09.58.58,0,0,1-.07-.33.62.62,0,0,1,.07-.37c.05-.06.15-.08.31-.08h1.23a.53.53,0,0,1,.34.09.4.4,0,0,1,.11.32.48.48,0,0,1-.1.37.56.56,0,0,1-.35.09Z"/><path class="cls-2" d="M92.25,22.67a.55.55,0,0,1-.34-.08.36.36,0,0,1-.11-.31.52.52,0,0,1,.11-.38.46.46,0,0,1,.34-.1H93a.62.62,0,0,0,.42-.13.7.7,0,0,0,.12-.47v-3c0-.07,0-.11.12-.11h.72a.1.1,0,0,1,.11.11V21a.64.64,0,0,0,.27.57,1.27,1.27,0,0,0,.74.2h.13a.53.53,0,0,1,.34.09.38.38,0,0,1,.11.32c0,.2,0,.32-.1.38a.62.62,0,0,1-.35.08H95.4a1.39,1.39,0,0,1-.63-.14,1.05,1.05,0,0,1-.42-.44,1.17,1.17,0,0,1-1.17.58Zm.57,2.09a.1.1,0,0,1-.11-.11v-.82a.1.1,0,0,1,.11-.11h.77a.1.1,0,0,1,.11.11v.82a.1.1,0,0,1-.11.11Zm1.37,0a.1.1,0,0,1-.11-.11v-.82a.1.1,0,0,1,.11-.11H95a.1.1,0,0,1,.11.11v.82a.1.1,0,0,1-.11.11Z"/><path class="cls-2" d="M95.64,22.67a.5.5,0,0,1-.33-.08.34.34,0,0,1-.12-.31.52.52,0,0,1,.11-.38.48.48,0,0,1,.34-.1h.71a.57.57,0,0,0,.41-.13.64.64,0,0,0,.13-.47v-6c0-.08,0-.12.11-.12h.72c.08,0,.11,0,.11.12v6.11a1.61,1.61,0,0,1-.3,1.07,1.28,1.28,0,0,1-1,.34Z"/><path class="cls-2" d="M103.48,20.75a3.94,3.94,0,0,1-.09.93,1.42,1.42,0,0,1-.29.59,1.07,1.07,0,0,1-.51.31,2.55,2.55,0,0,1-.73.09H99.37a.1.1,0,0,1-.11-.11v-.65a.1.1,0,0,1,.11-.11h2.15a2.2,2.2,0,0,0,.5-.05.55.55,0,0,0,.29-.17.59.59,0,0,0,.14-.31,3.23,3.23,0,0,0,0-.48v-.9c0-.76-.42-1.14-1.28-1.14H99.9a.1.1,0,0,1-.11-.11V18a.1.1,0,0,1,.11-.11h1.65a2,2,0,0,1,1.39.48,1.93,1.93,0,0,1,.54,1.51Z"/><path class="cls-2" d="M1.15,31.75l.18.15a2.73,2.73,0,0,0,.25.2,2.51,2.51,0,0,0,.43.22,1.11,1.11,0,0,0,.44.08,1,1,0,0,0,.36,0A.52.52,0,0,0,3,32.22.57.57,0,0,0,3.16,32a.78.78,0,0,0,0-.22.32.32,0,0,0-.09-.23,1.26,1.26,0,0,0-.25-.19,1.36,1.36,0,0,0-.3-.13l-.26-.1a6.26,6.26,0,0,1-.89-.38,3.19,3.19,0,0,1-.63-.45,1.78,1.78,0,0,1-.37-.55,1.63,1.63,0,0,1-.13-.67,1.51,1.51,0,0,1,.16-.71,1.41,1.41,0,0,1,.45-.55,2.09,2.09,0,0,1,.7-.35,3.31,3.31,0,0,1,.92-.12,3.4,3.4,0,0,1,.73.08,2.77,2.77,0,0,1,.7.28l.27.17a2.13,2.13,0,0,1,.22.18.55.55,0,0,1,.15.16.22.22,0,0,1,.06.13.17.17,0,0,1,0,.1.31.31,0,0,1-.08.1l-.64.69a.21.21,0,0,1-.14.07.2.2,0,0,1-.11,0l-.11-.09,0,0-.18-.15-.22-.14a1.84,1.84,0,0,0-.25-.09.86.86,0,0,0-.27-.05,1.09,1.09,0,0,0-.26,0,.65.65,0,0,0-.21.07.47.47,0,0,0-.15.13.33.33,0,0,0-.05.2.37.37,0,0,0,.06.21.53.53,0,0,0,.17.16,1.57,1.57,0,0,0,.29.13l.41.15.82.3a2.73,2.73,0,0,1,.65.39,1.57,1.57,0,0,1,.43.53,1.65,1.65,0,0,1,.15.74,1.79,1.79,0,0,1-.19.84,1.88,1.88,0,0,1-.52.64,2.7,2.7,0,0,1-.77.41,3.32,3.32,0,0,1-1,.14,2.61,2.61,0,0,1-1-.17,3.63,3.63,0,0,1-.87-.46A2.45,2.45,0,0,1,.33,33l-.19-.19v0h0a.28.28,0,0,1-.1-.17.22.22,0,0,1,.1-.16l.72-.69A.29.29,0,0,1,1,31.65a.13.13,0,0,1,.08,0Z"/><path class="cls-2" d="M7.66,27.69a.09.09,0,0,1,0-.06.1.1,0,0,1,.06-.05l.07,0,.07,0H9a.21.21,0,0,1,.12.05.45.45,0,0,1,.07.07l.11.24,2.2,5.69a.12.12,0,0,1,0,.14s-.08,0-.16,0H10.1a.28.28,0,0,1-.15,0,.27.27,0,0,1-.09-.12c0-.15-.11-.29-.16-.43l-.16-.42H7.31l-.16.42c-.06.14-.11.28-.16.43a.22.22,0,0,1-.22.15H5.53a.18.18,0,0,1-.13,0s0-.07,0-.12Zm.77,1.79c-.06.15-.11.3-.16.47s-.11.33-.17.5-.1.33-.16.49-.11.32-.16.47H9.07Z"/><path class="cls-2" d="M13.92,31.27a1.38,1.38,0,0,0,.08.53,1,1,0,0,0,.23.36.91.91,0,0,0,.33.2,1.23,1.23,0,0,0,.39.06,1.1,1.1,0,0,0,.4-.08,1,1,0,0,0,.32-.21,1.11,1.11,0,0,0,.23-.36,1.54,1.54,0,0,0,.08-.5V27.71a.19.19,0,0,1,.05-.13.18.18,0,0,1,.14-.06H17.4a.2.2,0,0,1,.15.06.18.18,0,0,1,.06.13v3.54a3.24,3.24,0,0,1-.22,1.24,2.21,2.21,0,0,1-.58.8,2.38,2.38,0,0,1-.85.44,4.17,4.17,0,0,1-1,.13,3.73,3.73,0,0,1-1-.14,2.13,2.13,0,0,1-1.44-1.25,3.14,3.14,0,0,1-.21-1.22V27.71a.17.17,0,0,1,.05-.13.14.14,0,0,1,.12-.06h1.25a.27.27,0,0,1,.14.05.19.19,0,0,1,.07.14Z"/><path class="cls-2" d="M24.23,30.65a3.35,3.35,0,0,1-.11.85,3.28,3.28,0,0,1-.33.74,3.08,3.08,0,0,1-.5.63,3,3,0,0,1-.65.48,3.54,3.54,0,0,1-.77.31,3.36,3.36,0,0,1-.85.1H19a.32.32,0,0,1-.14,0,.17.17,0,0,1,0-.14V27.72a.24.24,0,0,1,0-.15.25.25,0,0,1,.15-.05H21a3,3,0,0,1,.85.11,2.89,2.89,0,0,1,.77.31,3.31,3.31,0,0,1,.65.48,3.38,3.38,0,0,1,.5.63,2.78,2.78,0,0,1,.32.75A3,3,0,0,1,24.23,30.65ZM20.38,29v3.23h.73a1.67,1.67,0,0,0,.59-.16,1.58,1.58,0,0,0,.48-.33,1.46,1.46,0,0,0,.31-.49,1.56,1.56,0,0,0,.12-.62,1.5,1.5,0,0,0-.13-.64,1.73,1.73,0,0,0-.36-.52,1.69,1.69,0,0,0-.53-.33,1.78,1.78,0,0,0-.65-.12Z"/><path class="cls-2" d="M25.34,27.71a.19.19,0,0,1,.05-.13.17.17,0,0,1,.14-.06h1.23a.3.3,0,0,1,.14.05.19.19,0,0,1,.07.14v5.87q0,.18-.21.18H25.53c-.13,0-.19-.06-.19-.18Z"/><path class="cls-2" d="M31.74,31.75l.19.15a1.82,1.82,0,0,0,.25.2,2.12,2.12,0,0,0,.42.22,1.12,1.12,0,0,0,.45.08,1,1,0,0,0,.36,0,.48.48,0,0,0,.22-.13.36.36,0,0,0,.12-.18.54.54,0,0,0,0-.22.29.29,0,0,0-.1-.23,1.18,1.18,0,0,0-.24-.19,1.94,1.94,0,0,0-.3-.13l-.27-.1a6.11,6.11,0,0,1-.88-.38,3.19,3.19,0,0,1-.63-.45,1.65,1.65,0,0,1-.38-.55,1.82,1.82,0,0,1-.13-.67,1.65,1.65,0,0,1,.16-.71,1.6,1.6,0,0,1,.45-.55,2.14,2.14,0,0,1,.71-.35,3.26,3.26,0,0,1,.92-.12,3.47,3.47,0,0,1,.73.08,2.86,2.86,0,0,1,.69.28l.27.17a2.31,2.31,0,0,1,.23.18,1.1,1.1,0,0,1,.15.16.22.22,0,0,1,.06.13.17.17,0,0,1,0,.1l-.08.1-.65.69a.17.17,0,0,1-.14.07.23.23,0,0,1-.11,0l-.1-.09,0,0-.19-.15-.22-.14a1.84,1.84,0,0,0-.25-.09.75.75,0,0,0-.26-.05,1.09,1.09,0,0,0-.26,0,.81.81,0,0,0-.22.07.35.35,0,0,0-.14.13.34.34,0,0,0-.06.2.37.37,0,0,0,.06.21.73.73,0,0,0,.18.16,1.32,1.32,0,0,0,.29.13l.41.15.82.3a3,3,0,0,1,.65.39,1.54,1.54,0,0,1,.42.53,1.53,1.53,0,0,1,.16.74,1.92,1.92,0,0,1-.19.84,2,2,0,0,1-.52.64,2.63,2.63,0,0,1-.78.41,3.21,3.21,0,0,1-.95.14,2.58,2.58,0,0,1-1-.17,3.29,3.29,0,0,1-.87-.46,2.64,2.64,0,0,1-.29-.24l-.18-.19v0h0a.31.31,0,0,1-.09-.17.24.24,0,0,1,.09-.16l.73-.69a.3.3,0,0,1,.14-.06.12.12,0,0,1,.08,0Z"/><path class="cls-2" d="M41.23,28a.23.23,0,0,1,.11.11.14.14,0,0,1,0,.15l-.71,1a.19.19,0,0,1-.09.09.24.24,0,0,1-.13,0,1.83,1.83,0,0,0-.46-.24,1.49,1.49,0,0,0-.52-.08,1.53,1.53,0,0,0-.64.13,1.46,1.46,0,0,0-.5.35A1.6,1.6,0,0,0,38,30a1.75,1.75,0,0,0-.12.65,1.66,1.66,0,0,0,.12.64,1.42,1.42,0,0,0,.32.53,1.64,1.64,0,0,0,.5.36,1.7,1.7,0,0,0,.64.13,1.6,1.6,0,0,0,.53-.09A1.83,1.83,0,0,0,40.4,32a.24.24,0,0,1,.12,0,.15.15,0,0,1,.1.08l.72,1c0,.06,0,.11,0,.15a.21.21,0,0,1-.1.11,3.34,3.34,0,0,1-.85.41,3.14,3.14,0,0,1-1.82,0,2.85,2.85,0,0,1-.76-.32,3.3,3.3,0,0,1-1.16-1.15,3.29,3.29,0,0,1-.32-.77,3,3,0,0,1-.11-.85,3.07,3.07,0,0,1,.11-.86,3.69,3.69,0,0,1,.32-.77,3.18,3.18,0,0,1,.51-.65,2.89,2.89,0,0,1,.65-.5,2.85,2.85,0,0,1,.76-.32,3.08,3.08,0,0,1,.86-.12,3.31,3.31,0,0,1,1,.14A3,3,0,0,1,41.23,28Z"/><path class="cls-2" d="M42.41,27.71a.21.21,0,0,1,.05-.13.16.16,0,0,1,.13-.06h1.25a.27.27,0,0,1,.13.05.18.18,0,0,1,.06.14v2h2.09v-2a.21.21,0,0,1,.19-.19h1.23a.33.33,0,0,1,.15,0,.17.17,0,0,1,.06.14v5.88a.2.2,0,0,1,0,.14.24.24,0,0,1-.15,0H46.31a.18.18,0,0,1-.13,0,.17.17,0,0,1-.06-.14V31.19H44v2.39a.17.17,0,0,1-.05.14.24.24,0,0,1-.15,0H42.59c-.12,0-.18,0-.18-.16Z"/><path class="cls-2" d="M48.83,30.65a3.08,3.08,0,0,1,.12-.86,3.22,3.22,0,0,1,.32-.77,3.51,3.51,0,0,1,.5-.65,3.42,3.42,0,0,1,.65-.5,3.34,3.34,0,0,1,1.63-.44,3,3,0,0,1,.85.12,3.17,3.17,0,0,1,1.42.82,2.82,2.82,0,0,1,.5.65,3.72,3.72,0,0,1,.33.77,3.07,3.07,0,0,1,.11.86,3,3,0,0,1-.11.85,3.31,3.31,0,0,1-.33.77,2.82,2.82,0,0,1-.5.65,3.21,3.21,0,0,1-.65.5,2.91,2.91,0,0,1-.77.32,3,3,0,0,1-.85.12,3.34,3.34,0,0,1-1.63-.44,3.88,3.88,0,0,1-.65-.5,3.51,3.51,0,0,1-.5-.65A2.91,2.91,0,0,1,49,31.5,3,3,0,0,1,48.83,30.65Zm1.63,0a1.8,1.8,0,0,0,.12.66,1.55,1.55,0,0,0,1.47,1,1.7,1.7,0,0,0,.64-.13,1.63,1.63,0,0,0,.83-.88,1.8,1.8,0,0,0,.12-.66,1.78,1.78,0,0,0-.45-1.18,1.46,1.46,0,0,0-.5-.35,1.53,1.53,0,0,0-.64-.13,1.5,1.5,0,0,0-.64.13,1.46,1.46,0,0,0-.5.35,1.78,1.78,0,0,0-.45,1.18Z"/><path class="cls-2" d="M56,30.65a3.49,3.49,0,0,1,.11-.86,3.72,3.72,0,0,1,.33-.77,3.51,3.51,0,0,1,.5-.65,3.13,3.13,0,0,1,.65-.5,2.91,2.91,0,0,1,.77-.32,3,3,0,0,1,.85-.12,3.34,3.34,0,0,1,1.63.44A3.17,3.17,0,0,1,62,29a3.72,3.72,0,0,1,.33.77,3.49,3.49,0,0,1,.11.86,3.35,3.35,0,0,1-.11.85,3.31,3.31,0,0,1-.33.77,3.13,3.13,0,0,1-.5.65,3.51,3.51,0,0,1-.65.5,3.34,3.34,0,0,1-1.63.44,3,3,0,0,1-.85-.12,2.91,2.91,0,0,1-.77-.32,3.17,3.17,0,0,1-1.15-1.15,3.31,3.31,0,0,1-.33-.77A3.35,3.35,0,0,1,56,30.65Zm1.63,0a2,2,0,0,0,.11.66,1.65,1.65,0,0,0,.33.52,1.68,1.68,0,0,0,.51.36,1.62,1.62,0,0,0,1.27,0,1.57,1.57,0,0,0,.51-.36,1.65,1.65,0,0,0,.33-.52,1.8,1.8,0,0,0,.11-.66,1.7,1.7,0,0,0-.44-1.18,1.41,1.41,0,0,0-.51-.35,1.62,1.62,0,0,0-1.27,0,1.5,1.5,0,0,0-.51.35,1.74,1.74,0,0,0-.33.54A2,2,0,0,0,57.63,30.64Z"/><path class="cls-2" d="M63.31,27.7a.21.21,0,0,1,0-.13.2.2,0,0,1,.14-.05h1.24a.21.21,0,0,1,.2.18v4.58h2.31a.17.17,0,0,1,.13,0,.17.17,0,0,1,.05.13v1.11a.17.17,0,0,1-.05.13.15.15,0,0,1-.13.06H63.49a.16.16,0,0,1-.18-.18Z"/><path class="cls-2" d="M69.2,31.75l.18.15a2.73,2.73,0,0,0,.25.2,2.51,2.51,0,0,0,.43.22,1.11,1.11,0,0,0,.44.08,1,1,0,0,0,.36,0,.52.52,0,0,0,.23-.13.57.57,0,0,0,.12-.18.78.78,0,0,0,0-.22.29.29,0,0,0-.1-.23,1,1,0,0,0-.24-.19,1.36,1.36,0,0,0-.3-.13l-.26-.1a6.26,6.26,0,0,1-.89-.38,3.19,3.19,0,0,1-.63-.45,2,2,0,0,1-.38-.55,1.81,1.81,0,0,1-.12-.67,1.51,1.51,0,0,1,.16-.71,1.41,1.41,0,0,1,.45-.55,2,2,0,0,1,.7-.35,3.26,3.26,0,0,1,.92-.12,3.47,3.47,0,0,1,.73.08,2.77,2.77,0,0,1,.7.28l.27.17a2.13,2.13,0,0,1,.22.18.55.55,0,0,1,.15.16.22.22,0,0,1,.06.13.17.17,0,0,1,0,.1.31.31,0,0,1-.08.1l-.64.69a.21.21,0,0,1-.14.07.2.2,0,0,1-.11,0l-.11-.09,0,0-.18-.15-.22-.14a1.84,1.84,0,0,0-.25-.09.86.86,0,0,0-.27-.05,1.09,1.09,0,0,0-.26,0,.65.65,0,0,0-.21.07A.47.47,0,0,0,70,29a.33.33,0,0,0,0,.2.37.37,0,0,0,.06.21.53.53,0,0,0,.17.16,1.57,1.57,0,0,0,.29.13l.41.15.82.3a2.73,2.73,0,0,1,.65.39,1.7,1.7,0,0,1,.43.53,1.65,1.65,0,0,1,.15.74,1.79,1.79,0,0,1-.19.84,1.88,1.88,0,0,1-.52.64,2.7,2.7,0,0,1-.77.41,3.32,3.32,0,0,1-1,.14,2.61,2.61,0,0,1-1-.17,3.63,3.63,0,0,1-.87-.46,2.45,2.45,0,0,1-.28-.24l-.19-.19v0h0a.28.28,0,0,1-.1-.17.22.22,0,0,1,.1-.16l.72-.69a.29.29,0,0,1,.15-.06.13.13,0,0,1,.08,0Z"/><path class="cls-2" d="M80.5,29.28a1.65,1.65,0,0,0-.46-.23,1.54,1.54,0,0,0-1.16.05,1.36,1.36,0,0,0-.5.36,1.42,1.42,0,0,0-.32.53,1.75,1.75,0,0,0-.12.65,1.69,1.69,0,0,0,.12.64,1.42,1.42,0,0,0,.32.53,1.64,1.64,0,0,0,.5.36,1.66,1.66,0,0,0,.64.13l.29,0,.31-.06v-1.1a.15.15,0,0,1,0-.13.15.15,0,0,1,.13-.06h1.15a.27.27,0,0,1,.13.05.16.16,0,0,1,.07.14v2a.22.22,0,0,1-.12.19,2,2,0,0,1-.44.23,3.26,3.26,0,0,1-.5.16,4.34,4.34,0,0,1-.52.09,3.12,3.12,0,0,1-.52,0,3.08,3.08,0,0,1-.86-.12,2.85,2.85,0,0,1-.76-.32,3.3,3.3,0,0,1-1.16-1.15,3.29,3.29,0,0,1-.32-.77,3,3,0,0,1-.11-.85,3.07,3.07,0,0,1,.11-.86,3.69,3.69,0,0,1,.32-.77,3.18,3.18,0,0,1,.51-.65,2.89,2.89,0,0,1,.65-.5,2.85,2.85,0,0,1,.76-.32,3.08,3.08,0,0,1,.86-.12,3.31,3.31,0,0,1,1,.14,3,3,0,0,1,.84.41.2.2,0,0,1,.11.11.12.12,0,0,1,0,.15l-.68,1a.31.31,0,0,1-.11.09A.18.18,0,0,1,80.5,29.28Z"/><path class="cls-2" d="M84.48,31.27a1.6,1.6,0,0,0,.08.53,1.17,1.17,0,0,0,.23.36,1.12,1.12,0,0,0,.33.2,1.27,1.27,0,0,0,.39.06,1.1,1.1,0,0,0,.4-.08,1.15,1.15,0,0,0,.33-.21,1.28,1.28,0,0,0,.22-.36,1.54,1.54,0,0,0,.08-.5V27.71a.19.19,0,0,1,0-.13.2.2,0,0,1,.14-.06H88a.21.21,0,0,1,.21.19v3.54A3.06,3.06,0,0,1,88,32.49a2.1,2.1,0,0,1-.58.8,2.3,2.3,0,0,1-.85.44,4.17,4.17,0,0,1-1,.13,3.73,3.73,0,0,1-1-.14,2.3,2.3,0,0,1-.85-.44,2.21,2.21,0,0,1-.58-.81,3,3,0,0,1-.22-1.22V27.71a.21.21,0,0,1,.05-.13.14.14,0,0,1,.12-.06h1.26a.27.27,0,0,1,.13.05.16.16,0,0,1,.07.14Z"/><path class="cls-2" d="M89.4,27.71a.19.19,0,0,1,0-.13.17.17,0,0,1,.14-.06h1.23a.27.27,0,0,1,.14.05.16.16,0,0,1,.07.14v5.87q0,.18-.21.18H89.59a.17.17,0,0,1-.19-.18Z"/><path class="cls-2" d="M97.79,30.65a3,3,0,0,1-.12.85,2.86,2.86,0,0,1-.32.74,3.08,3.08,0,0,1-.5.63,3,3,0,0,1-.65.48,3.76,3.76,0,0,1-.77.31,3.36,3.36,0,0,1-.85.1H92.51a.32.32,0,0,1-.14,0,.17.17,0,0,1-.05-.14V27.72a.24.24,0,0,1,0-.15.23.23,0,0,1,.15-.05h2.07a3,3,0,0,1,.85.11,2.89,2.89,0,0,1,.77.31,3.31,3.31,0,0,1,.65.48,3.38,3.38,0,0,1,.5.63,3.14,3.14,0,0,1,.32.75A3,3,0,0,1,97.79,30.65ZM93.94,29v3.23h.73a1.67,1.67,0,0,0,.59-.16,1.43,1.43,0,0,0,.47-.33,1.34,1.34,0,0,0,.32-.49,1.56,1.56,0,0,0,.12-.62A1.5,1.5,0,0,0,96,30a1.73,1.73,0,0,0-.36-.52,1.69,1.69,0,0,0-.53-.33A1.78,1.78,0,0,0,94.5,29Z"/><path class="cls-2" d="M98.89,27.72a.24.24,0,0,1,0-.15.22.22,0,0,1,.14-.05h4.17a.17.17,0,0,1,.14.06.16.16,0,0,1,.05.14v1a.2.2,0,0,1-.05.14.17.17,0,0,1-.14.06h-2.73V30h2.1a.29.29,0,0,1,.14,0,.17.17,0,0,1,0,.13v.91a.18.18,0,0,1,0,.11.15.15,0,0,1-.13.06h-2.11v1.07h2.83a.17.17,0,0,1,.18.19v1.06a.09.09,0,0,1,0,.07c0,.08-.07.12-.17.12H99.07a.17.17,0,0,1-.13,0,.16.16,0,0,1,0-.14Z"/><g class="cls-3"><path class="cls-4" d="M150.82,7a11.94,11.94,0,0,0-5.06,1.57,12.18,12.18,0,0,0-4.21,4.08A17,17,0,0,0,140,16.3a0,0,0,0,0,0,0l-.09.38v0a0,0,0,0,0,0,0,14.24,14.24,0,0,1-.88,2.42,5.22,5.22,0,0,1-3.9,2.58,8.2,8.2,0,0,1-2.32-.22c-.41-.06-.82-.13-1.26-.22h0l-.25-.16a18.68,18.68,0,0,1-2.52-3.86,12.52,12.52,0,0,1-1.09-5.12A11.69,11.69,0,0,1,128.74,7a12.18,12.18,0,0,1,22.08,0Z"/><path class="cls-5" d="M147.9,30.91l-.16-.09a.14.14,0,0,1,.1,0Z"/><path class="cls-6" d="M152,12.19a12.35,12.35,0,0,1-.91,4.65,15.55,15.55,0,0,1-2.42,3.86c-.22.28-.41.53-.63.79a.11.11,0,0,1-.09,0,11.25,11.25,0,0,1-2.54.44,5.16,5.16,0,0,1-4.18-2.08,10.57,10.57,0,0,1-1-2.13c-.12-.35-.25-.66-.37-1v0l.09-.38a0,0,0,0,1,0,0,17,17,0,0,1,1.57-3.61,12.18,12.18,0,0,1,4.21-4.08A11.94,11.94,0,0,1,150.82,7,11.82,11.82,0,0,1,152,12.19Z"/><path class="cls-7" d="M131.31,21.3c-.06,0-.09-.1-.12-.13"/><path class="cls-8" d="M152,40.15a12,12,0,0,1-1.16,5.15,12.09,12.09,0,0,1-5.06-1.57,12.74,12.74,0,0,1-4.24-4.18,15,15,0,0,1-1.32-2.7c-.12-.35-.25-.73-.34-1.1.09-.35.22-.73.34-1.07a7,7,0,0,1,.91-2.17,5.55,5.55,0,0,1,1.7-1.38,4.85,4.85,0,0,1,2.58-.75,4,4,0,0,1,.84.09c.51.09,1,.22,1.51.35l.16.09c.09.13.19.22.28.35s0,0,0,0,.07.06.07.09l0,0a14.91,14.91,0,0,1,2.23,3.05A11.65,11.65,0,0,1,152,40.15Z"/></g><g class="cls-3"><path class="cls-7" d="M131.31,21.3c-.06,0-.09-.1-.12-.13"/><path class="cls-9" d="M134,26.32a5,5,0,0,1-.63,2.61,4.85,4.85,0,0,1-.5.69,14,14,0,0,1-1.07,1.13l-.59.35a19.06,19.06,0,0,1-4.62.25,12.43,12.43,0,0,1-5-1.6,11.81,11.81,0,0,1-3.9-3.58,11.7,11.7,0,0,1,3.9-3.58A12.27,12.27,0,0,1,126,21.05a19.93,19.93,0,0,1,5.27.25c.29.34.57.66.88,1a7.4,7.4,0,0,1,1.42,1.86A5.18,5.18,0,0,1,134,26.32Z"/><path class="cls-10" d="M131.75,30.75a1.61,1.61,0,0,1-.25.29l-.34.06Z"/></g><g class="cls-3"><path class="cls-7" d="M131.31,21.3c-.06,0-.09-.1-.12-.13"/><path class="cls-10" d="M131.75,30.75a1.61,1.61,0,0,1-.25.29l-.34.06Z"/></g><g class="cls-3"><path class="cls-11" d="M152,12.19a12.35,12.35,0,0,1-.91,4.65,15.55,15.55,0,0,1-2.42,3.86c-.22.28-.41.53-.63.79a.11.11,0,0,1-.09,0,11.25,11.25,0,0,1-2.54.44,5.16,5.16,0,0,1-4.18-2.08,10.57,10.57,0,0,1-1-2.13c-.12-.35-.25-.66-.37-1v0l.09-.38a0,0,0,0,1,0,0,17,17,0,0,1,1.57-3.61,12.18,12.18,0,0,1,4.21-4.08A11.94,11.94,0,0,1,150.82,7,11.82,11.82,0,0,1,152,12.19Z"/></g><g class="cls-3"><path class="cls-12" d="M139.73,36.09a18.59,18.59,0,0,1-2.1,4.12,12.14,12.14,0,0,1-8.92,5.09,12.18,12.18,0,0,1-11-19.13,11.81,11.81,0,0,0,3.9,3.58,12.43,12.43,0,0,0,5,1.6,19.06,19.06,0,0,0,4.62-.25l.34-.06c.38-.07.76-.16,1.13-.26A8.55,8.55,0,0,1,135,30.5a5.3,5.3,0,0,1,2,.79A5,5,0,0,1,139,33.14a5.69,5.69,0,0,1,.34.79,10.39,10.39,0,0,1,.44,1.47l.12.35Z"/><path class="cls-11" d="M152,12.19a12.35,12.35,0,0,1-.91,4.65,15.55,15.55,0,0,1-2.42,3.86c-.22.28-.41.53-.63.79a.11.11,0,0,1-.09,0,11.25,11.25,0,0,1-2.54.44,5.16,5.16,0,0,1-4.18-2.08,10.57,10.57,0,0,1-1-2.13c-.12-.35-.25-.66-.37-1v0l.09-.38a0,0,0,0,1,0,0,17,17,0,0,1,1.57-3.61,12.18,12.18,0,0,1,4.21-4.08A11.94,11.94,0,0,1,150.82,7,11.82,11.82,0,0,1,152,12.19Z"/></g><path class="cls-7" d="M149,32.8a10.15,10.15,0,0,1-.72-1.38"/><path class="cls-7" d="M148.28,31.38a.11.11,0,0,0,0-.09"/><path class="cls-7" d="M149,20c-.12.18-.24.41-.38.66"/><path class="cls-13" d="M162.44,39.26a12.11,12.11,0,0,1-11.62,6A11.88,11.88,0,0,0,152,40.15a11.62,11.62,0,0,0-1.44-5.69,15.29,15.29,0,0,0-2.23-3.05l0,0s0-.06-.07-.09,0,0,0,0-.19-.22-.28-.34l-.07-.07a11.28,11.28,0,0,1-1.59-1.91,5.17,5.17,0,0,1-.32-4.65,12.45,12.45,0,0,1,1.38-1.92c.22-.27.47-.59.72-.88l.41-.09h.07a17.72,17.72,0,0,1,3.83-.39A12.35,12.35,0,0,1,158,22.58a11.61,11.61,0,0,1,3.87,3.58A12.12,12.12,0,0,1,162.44,39.26Z"/></g></g></g></svg>