<svg id="Layer_1" enable-background="new 0 0 512 512" height="512" viewBox="0 0 512 512" width="512" xmlns="http://www.w3.org/2000/svg"><g><path d="m217.695 226.491c2.321 1.34 4.91 2.01 7.5 2.01 2.589 0 5.18-.67 7.5-2.01l81.805-47.229c4.641-2.68 7.5-7.631 7.5-12.99s-2.859-10.311-7.5-12.99l-81.805-47.23c-4.641-2.68-10.359-2.68-15 0s-7.5 7.631-7.5 12.99v94.46c0 5.358 2.859 10.31 7.5 12.989zm22.5-81.47 36.805 21.25-36.805 21.249z"/><path d="m480.364 374.994c10.994-10.754 17.835-25.737 17.835-42.295 0-25.266-15.916-46.875-38.245-55.355v-244.843c0-8.284-6.716-15-15-15h-378c-8.284 0-15 6.716-15 15v244.88c-22.279 8.505-38.152 30.088-38.152 55.319 0 16.558 6.841 31.541 17.835 42.295-19.093 13.179-31.637 35.2-31.637 60.105v44.399c0 8.284 6.716 15 15 15s15-6.716 15-15v-44.399c0-23.71 19.29-43 43-43s43 19.29 43 43v44.399c0 8.284 6.716 15 15 15s15-6.716 15-15v-44.399c0-24.904-12.544-46.925-31.636-60.105 10.37-10.144 17.04-24.05 17.764-39.492h64.699c.724 15.442 7.394 29.349 17.764 39.492-19.093 13.18-31.637 35.201-31.637 60.105v44.399c0 8.284 6.716 15 15 15s15-6.716 15-15v-44.399c0-23.71 19.29-43 43-43s43 19.29 43 43v44.399c0 8.284 6.716 15 15 15s15-6.716 15-15v-44.399c0-24.904-12.544-46.925-31.637-60.105 10.37-10.144 17.041-24.05 17.764-39.492h64.791c.724 15.442 7.394 29.348 17.764 39.492-19.092 13.179-31.636 35.2-31.636 60.105v44.399c0 8.284 6.716 15 15 15s15-6.716 15-15v-44.399c0-23.71 19.29-43 43-43s43 19.29 43 43v44.399c0 8.284 6.716 15 15 15s15-6.716 15-15v-44.399c0-24.904-12.544-46.925-31.636-60.106zm-41.364-13.096c-16.1 0-29.199-13.099-29.199-29.199s13.099-29.198 29.199-29.198 29.198 13.099 29.198 29.198c.001 16.101-13.097 29.199-29.198 29.199zm-9.046-314.397v226.691c-18.96 2.92-34.968 14.876-43.508 31.31h-77.938c-9.868-18.991-29.715-32.001-52.554-32.001s-42.686 13.01-52.554 32.001h-77.845c-8.553-16.46-24.6-28.429-43.6-31.324v-226.677zm-144.801 285.198c0 16.101-13.099 29.199-29.199 29.199s-29.199-13.099-29.199-29.199 13.099-29.198 29.199-29.198 29.199 13.099 29.199 29.198zm-212.153-29.198c16.1 0 29.198 13.099 29.198 29.198 0 16.101-13.098 29.199-29.198 29.199s-29.198-13.098-29.198-29.199c0-16.099 13.098-29.198 29.198-29.198z"/></g></svg>