<svg xmlns="http://www.w3.org/2000/svg" viewBox="0 0 923.44 423.48"><defs><style>.cls-1{fill:#338841;}</style></defs><g id="Layer_2" data-name="Layer 2"><g id="Layer_1-2" data-name="Layer 1"><path class="cls-1" d="M639.8,382.37c25.29-12.66,55.47-32.57,58-56.37a13.33,13.33,0,0,0,.19-2.2V190.67L849.2,148v83.55A44.42,44.42,0,0,0,821.86,295L800.51,403.17a12.66,12.66,0,0,0,12.42,15.11h97.85a12.64,12.64,0,0,0,12.42-15.07L901.9,293.57c0-.25-.11-.49-.17-.73a44.46,44.46,0,0,0-27.22-60.92V134.41a12.61,12.61,0,0,0-3.88-9.11,12.59,12.59,0,0,0-7.34-5.61L440.5.48A12.23,12.23,0,0,0,436.26,0,12.53,12.53,0,0,0,432,.48L9.22,119.69a12.66,12.66,0,0,0,0,24.37l165.29,46.61V323.8a12.11,12.11,0,0,0,.19,2.18c2.53,23.81,32.72,43.73,58,56.39,0,0,69,41.11,203.55,41.11S639.8,382.37,639.8,382.37Zm32.87-59.32c-.43,7.17-16.66,25.26-58.41,43.29h0c-2.66,1.15-5.46,2.31-8.3,3.45h-.05l0,0-.27.11c-2.73,1.08-5.55,2.16-8.38,3.2l-.64.23h0c-2.79,1-5.66,2-8.54,3h0l-.84.28h0c-2.63.89-5.32,1.75-8,2.6l-.75.24h0l-.93.28h0q-4.5,1.38-9.14,2.69h0l-.9.25h0c-3.15.89-6.39,1.75-9.61,2.58h0l-.75.2h0c-2.33.59-4.7,1.17-7.06,1.73-1.07.25-2.13.51-3.2.75h0l-.41.1h0c-7.3,1.67-14.81,3.2-22.32,4.54h0l-.07,0-.54.09c-3.63.65-7.33,1.26-11,1.82h0l-1,.16h0c-3.62.55-7.27,1.06-10.86,1.53h0l-1.26.16h0c-3.62.46-7.3.88-10.92,1.26h0l-.42.05-.93.09c-3.67.38-7.41.72-11.13,1h0l-1.3.11h0c-3.76.29-7.62.54-11.49.75h0l-1.1.06h0c-4,.2-8,.36-12.06.47h0l-.71,0h0c-4.37.11-8.71.17-12.92.17s-8.56-.06-12.92-.17h0l-.71,0h0c-3.35-.09-6.71-.22-10.05-.38l-2-.09h0l-1.11-.06h0c-3.87-.21-7.74-.46-11.49-.75h0l-1.31-.11h0l-1.21-.1c-3.32-.27-6.65-.57-9.92-.91h0l-1.36-.14h0c-3.62-.38-7.28-.8-10.9-1.26h0l-1.26-.16h0c-3.1-.41-6.22-.86-9.31-1.32l-1.56-.21h0l-.67-.1-.34-.05h0c-3.65-.56-7.34-1.17-11-1.82l-.55-.09-.06,0h0c-7.51-1.34-15-2.87-22.32-4.54h-.07l-.07,0-.28-.07h0c-3.42-.79-6.87-1.62-10.25-2.48h0l-.13,0-.64-.16h0l-1.53-.4c-1.94-.51-3.87-1-5.78-1.55l-2.29-.63h0l-.91-.26h0q-4.65-1.31-9.14-2.69h0l-.16,0-.78-.24c-3-.93-5.91-1.87-8.78-2.84l-.84-.28h0c-2.88-1-5.76-2-8.55-3l-.63-.23h0c-2.83-1-5.65-2.12-8.39-3.2h0l-.35-.14h0c-2.85-1.14-5.64-2.3-8.31-3.45h0c-41.75-18-58-36.12-58.4-43.29l0-.36V197.8L307.3,228.11,432,263.28h0a12.88,12.88,0,0,0,1.93.37l.62,0c.29,0,.59.06.88.06l.81,0,.8,0c.3,0,.59,0,.89-.06l.61,0a13,13,0,0,0,1.94-.37l145.51-41,86.68-24.45V322.7C672.68,322.82,672.67,322.94,672.67,323.05Zm9.25-154.15h0l-102.77,29h0L436.77,238a8.68,8.68,0,0,0-1,0L314.18,203.75h0L190.6,168.9h0l-131.3-37L435.75,25.73h1L813.21,131.88Zm179.34,86.32a19.13,19.13,0,0,1,14,32.17h0a19.52,19.52,0,0,1-2.88,2.55h0c-.24.17-.51.32-.76.48s-.5.34-.79.52h0l-.17.1-.64.35-.83.39h0l-.15.07-.11.06-.75.28-.69.27h0l-.4.15c-.39.12-.79.22-1.19.31l-.19.05h0l-.54.14c-.36.08-.74.13-1.12.18l-.26,0h0l-.6.09c-.65.06-1.3.1-1.91.1h0c-.61,0-1.24,0-1.88-.1l-.6-.09h0l-.31-.05c-.37-.05-.73-.1-1.08-.17l-.53-.13h0l-.38-.1c-.34-.09-.68-.17-1-.27l-.39-.15h0c-.21-.07-.4-.16-.6-.23l-.85-.32-.12-.07-.12-.05h0l-.81-.39-.65-.35-.17-.1-.8-.52c-.24-.16-.5-.31-.73-.47h0a19.6,19.6,0,0,1-2.89-2.56h0a19.13,19.13,0,0,1,14-32.16ZM828.33,393l15.34-77.74h0l1.22.51,1.16.42.5.19h0c.31.12.61.23.92.33h0c.6.2,1.18.36,1.72.51l.07,0,1.48.38h0c.38.11.76.2,1.15.28h0c.61.13,1.2.23,1.77.32l1.56.23h0c.41.07.83.13,1.25.18h0l.86.06c1.27.11,2.54.18,3.79.18h0c1.31,0,2.64-.07,4-.19.23,0,.46,0,.68-.06h0c.41,0,.82-.1,1.28-.18h0c.46-.06,1-.12,1.47-.21s1.16-.19,1.77-.32h0l.62-.16c.18,0,.34-.07.54-.13h0c.44-.1.93-.23,1.47-.37l.15,0c.52-.14,1.07-.3,1.63-.48h0c.3-.09.59-.2.79-.28l.14-.05h0l.39-.15c.44-.15.88-.31,1.29-.47s.85-.35,1.26-.52l.33-.14h.06c.22-.09.44-.2.67-.31h0l0,0,.2-.1L895.42,393Z"/></g></g></svg>