<svg xmlns="http://www.w3.org/2000/svg" viewBox="0 0 835.94 830.66"><defs><style>.cls-1{fill:#338841;}</style></defs><g id="Layer_2" data-name="Layer 2"><g id="Layer_1-2" data-name="Layer 1"><path class="cls-1" d="M835.77,364.66,816.41,265a11.18,11.18,0,0,0-.36-1.29,37.86,37.86,0,0,0,3.81-16.58,38.24,38.24,0,0,0-28.39-36.89V119.9a9.22,9.22,0,0,0-5.18-8.28,9.1,9.1,0,0,0-4.49-2.91L397.5.35a16.56,16.56,0,0,0-6.48,0L6.72,108.71a9.23,9.23,0,0,0,0,17.76l151.9,42.83V284.88a9.2,9.2,0,0,0-8.05,3,325.62,325.62,0,0,0-82.4,216.66h0v0A325.6,325.6,0,0,0,149,719.4a9,9,0,0,0,3.13,3.52,326,326,0,0,0,483.94.38,9.1,9.1,0,0,0,3.65-4,.94.94,0,0,0,.06-.15A326,326,0,0,0,641.55,292l-.07-.08-.06-.08-.75-.83a113.08,113.08,0,0,0-10.77-10.8V169.3L773,129v81a38.12,38.12,0,0,0-24.73,55.51l-19.56,99.14a9.21,9.21,0,0,0,9,11h88.94a9.22,9.22,0,0,0,9.06-11ZM777.6,266.4Zm-619,40.41V311a10,10,0,0,0,.13,1.56c1.91,20.95,27.46,44.68,68.95,64.14a346.23,346.23,0,0,0-24.23,118.67H86.78A307.08,307.08,0,0,1,158.62,306.81Zm471.15,5.76a9.31,9.31,0,0,0,.13-1.59v-4.16a307.53,307.53,0,0,1,71.84,188.53H585.05a346,346,0,0,0-24.22-118.67C602.3,357.23,627.85,333.5,629.77,312.57ZM628.47,704c-14-5.9-44.06-17-89.76-26,29-51.81,44.45-107,45.88-164.21H701.75A307.09,307.09,0,0,1,628.47,704ZM160,703.93A307.12,307.12,0,0,1,86.78,513.8H203.93c1.43,57.23,16.82,112.34,45.83,164.12C204,686.88,174,698,160,703.93Zm359.46-29.39a764.22,764.22,0,0,0-116-9.76v-151H566.13C564.64,569.9,549,623.91,519.44,674.54ZM385,664.68a763.5,763.5,0,0,0-116,9.77c-29.49-50.61-45.15-104.58-46.63-160.65H385Zm0,18.45v119c-24.84-18.07-69.08-55-105.48-110.66A751.81,751.81,0,0,1,385,683.13Zm18.45.11a752.47,752.47,0,0,1,105.41,8.31c-36.39,55.58-80.59,92.51-105.41,110.57ZM543.88,384a327.62,327.62,0,0,1,22.71,111.36H403.49V411.68C452.62,410.6,501.63,400.9,543.88,384ZM385,495.35H221.93A327.58,327.58,0,0,1,244.65,384C286.9,400.9,335.9,410.6,385,411.68ZM173.21,718.46c15.79-6.22,44.65-15.92,86.58-23.67,35,55.89,78.25,94.65,106.17,116.09A308.12,308.12,0,0,1,173.21,718.46Zm249.36,92.42c27.89-21.43,71.09-60.16,106.11-116,41.89,7.74,70.76,17.44,86.56,23.65A308.13,308.13,0,0,1,422.57,810.88ZM611.45,284.51v25.57l0,.42c-.59,11.39-20.25,32.24-62,51.12-26.21,11.85-81.21,31.73-155.16,31.73s-128.95-19.88-155.15-31.73c-41.76-18.88-61.41-39.73-62-51.12a2.73,2.73,0,0,0,0-.41V174.51l52.11,14.69L391,234.84h0c.3.08.61.14.91.19l.33.07c.12,0,.24,0,.37,0a8.48,8.48,0,0,0,.87.06h0c.23,0,.46,0,.69,0s.43,0,.65,0h.29a8.48,8.48,0,0,0,.87-.06h.18l.14,0c.32,0,.64-.11,1-.19l.14,0h0l214-60.33ZM395,216.38h-.29l-.43,0-.43,0h-.28L234.19,171.44l-63.84-18h0L43.22,117.59,393.55,18.81a11.37,11.37,0,0,0,1.43,0L745.3,117.59Zm386.73,11.05a19.67,19.67,0,0,1,14.44,33.06l0,0a21.44,21.44,0,0,1-2.94,2.6h0l0,0c-.49.35-1,.69-1.55,1h0l-.09.05h0l-.05,0-.64.35-.88.43h0l-.16.08a.67.67,0,0,0-.12.06l-.62.25-.85.31h0l-.43.16-.66.19-.76.19h0l-.15,0-.4.11c-.42.08-.94.16-1.41.22h-.06l-.28,0h0l-.26,0a19.92,19.92,0,0,1-2,.11h0a19.76,19.76,0,0,1-2-.11l-.58-.09h0l-.21,0-.6-.08-.47-.08-.15,0-.54-.14h0l-.77-.19-.66-.19c-.13,0-.27-.11-.41-.15h0l-.85-.31c-.23-.09-.44-.17-.63-.26l-.27-.13h0l-.84-.4-.69-.38-.16-.09h0l0,0c-.54-.32-1.06-.66-1.56-1h0l0,0a20.62,20.62,0,0,1-3-2.63,19.67,19.67,0,0,1,14.45-33.06ZM749,357.19l15-76.26.19.1,1.07.52.4.19,0,0,.52.24,0,0h.05c.43.19.88.37,1.36.56l0,0c.45.17.93.35,1.46.53h0l.74.27h0c.49.16,1,.3,1.42.42l.1,0,1.33.33,0,0,.9.22h0c.52.11,1,.2,1.52.27l1.34.2h.05c.33.06.66.11,1,.15h.1c1.31.13,2.63.2,3.91.2h0c.66,0,1.32,0,2-.05l1.42-.11.6-.05h0l1.06-.16h0c.42-.05.86-.11,1.33-.19s1-.16,1.51-.27h0c.31-.06.61-.14,1-.24h0l1.3-.33.13,0c.44-.12.91-.25,1.39-.41h0l.6-.21.17-.06h0l1.4-.52.18-.07c.4-.15.82-.32,1.25-.52h.06l.45-.22.1,0,0,0,.38-.19c.37-.17.73-.34,1.08-.52s.59-.31.87-.47l.53-.28,14.94,76.91Z"/></g></g></svg>