<svg xmlns="http://www.w3.org/2000/svg" viewBox="0 0 401 346.6"><defs><style>.cls-1{fill:#32870f;fill-rule:evenodd;}</style></defs><g id="Layer_2" data-name="Layer 2"><g id="Layer_1-2" data-name="Layer 1"><path class="cls-1" d="M7.88,149.7A195.06,195.06,0,0,0,29.38,192C46.35,217.79,69.64,243,96.3,267c30.2,27.18,64.75,52.95,99.39,76.38l4.84,3.27,4.85-3.28c34.56-23.53,68.28-48.38,99.38-76.37,25.08-22.58,47.17-46.18,63.83-70.36,12.19-17.7,22.4-36.92,28-57.69,10.29-38.1,2.73-77-25.12-106.07C344.32,4.45,303.69-7.34,265.94,4.7c-23.76,7.59-46.8,24.65-65.41,53.6-18.61-28.95-41.65-46-65.4-53.6a99.47,99.47,0,0,0-57.45-.9A106.86,106.86,0,0,0,0,106.57,126,126,0,0,0,7.88,149.7Zm119.53,23.66,68.27,0v36.27c0,17-2,40.66,17.3,27.17,21.45-15,31.85,7.49,24.06,17.54-17.13,22.13-41.29-29.54-41.36,15.81v61.42c-32.48-22.25-64.66-46.43-92.9-71.84C73.85,233.7,49,206.36,32.31,178.46q-1.52-2.52-3-5.08l67,0c-.37.49-.85,1.12-1.45,1.94-18.52,25.63,3.13,44.5,20.56,41.79,15.56-2.43,28.5-19.82,13.42-41.65-.62-.9-1.11-1.58-1.47-2.08Zm78,57v-57h60.25c37.61,0,7.75-18.78,10.26-32.32,2.65-14.25,22.33-15.79,27.48-2.6,4.86,12.44-8.48,18.23-8.48,26.43,0,5.56,4.64,8.48,19.55,8.5H371.7C353.18,206,326,234.77,298.28,259.75c-28.24,25.41-60.42,49.6-92.9,71.85V261.37c3.82,2.94,14.61,12.54,28.75,7,31.3-12.25,10-64.87-26.69-39.51-.88.61-1.55,1.1-2.06,1.46Zm-9.7-97.26v30.59H147.41c-16.79,0-39.82-1.79-26.47,17.3,14.75,21.09-6.76,31.95-17.64,24C81.08,188.69,132.78,163.8,88,163.67H24.25A152.3,152.3,0,0,1,13.82,136.4C4.41,101.64,11.1,66.13,36.55,39.54,61.16,13.83,98,3,132.21,13.91c23.11,7.38,45.61,24.78,63.47,55v33.75c-1.64-1.86-5.76-7-15.33-8.84-30.92-6.06-40.55,41.39-9,47.24,10.19,1.89,16.68-2.6,24.36-7.93Zm109.9,30.61c4-5.08,17.89-25.33-1.41-39.4s-52.47,6.91-31.27,37.33c.62.89,1.12,1.56,1.48,2.07l-69,0V153.4c0-56.19-14.34-18.57-32.32-21.91-14.07-2.61-16-22.23-2.6-27.48,12.41-4.85,18.12,8.4,26.42,8.45,12,.06,6.62-36.74,8.5-43.6,17.86-30.17,40.36-47.57,63.48-54.95a89.93,89.93,0,0,1,51.91-.79,97.15,97.15,0,0,1,70.59,93.45c0,20-5.8,39.26-14.55,57.1Z"/></g></g></svg>