<svg xmlns="http://www.w3.org/2000/svg" viewBox="0 0 837.96 699.17"><defs><style>.cls-1{fill:#338841;}</style></defs><g id="Layer_2" data-name="Layer 2"><g id="Layer_40" data-name="Layer 40"><g id="Layer_47_copy_3" data-name="Layer 47 copy 3"><path class="cls-1" d="M140.33,699.17h223V363.31H474.65V699.17h213.5m106.15,0H838V335.87H600V0H236.71V335.87H0v363.3H34.16m301.71-27.44H27.44V363.31H335.87Zm27.44-335.86H264.15V27.44H572.57V335.87H363.31ZM810.52,671.73H502.09V363.31H810.52Z"/><path class="cls-1" d="M408.17,102.45l-47.4,132.61h25.77l10-29.15H437l10.53,29.15h27.09l-47.4-132.61Zm-5.08,82.77,9.59-29.16,3.95-20.88h.94l3.95,20.69,9.78,29.35Z"/><path class="cls-1" d="M639.9,579.28q5.75.29,10.73.28h8.18a79.81,79.81,0,0,0,19-2.25,53.51,53.51,0,0,0,16.46-7,35.71,35.71,0,0,0,11.56-12.14,34.25,34.25,0,0,0,4.33-17.58A37.35,37.35,0,0,0,708,527.27a28.35,28.35,0,0,0-5.89-9.59,27.45,27.45,0,0,0-8.8-6.21,43.55,43.55,0,0,0-10.66-3.2v-1.13a31.59,31.59,0,0,0,10.84-4.61,28.23,28.23,0,0,0,7.3-7.14,26.9,26.9,0,0,0,4-8.94,40.42,40.42,0,0,0,1.21-9.78q0-9.78-4.13-16.18a28.69,28.69,0,0,0-11-10,51.35,51.35,0,0,0-15.61-5,112.79,112.79,0,0,0-18-1.41c-3.65,0-7.31.06-11,.19s-7.31.31-10.81.56-6.81.57-9.88.94-5.8.76-8.18,1.13V576.74a82.73,82.73,0,0,0,10.81,1.69Q634.17,579,639.9,579.28Zm2.74-112.78A59,59,0,0,1,649,466c2.76-.12,5.77-.19,9-.19a44.24,44.24,0,0,1,8.27.75,21.1,21.1,0,0,1,7.06,2.6,14.2,14.2,0,0,1,5,5,15.5,15.5,0,0,1,1.88,8,14.75,14.75,0,0,1-5.17,11.73,34.23,34.23,0,0,1-12.32,6.7,52.77,52.77,0,0,1-5.74.56q-3.48.18-6.11.18h-8.27Zm0,54.38h13.48a83.76,83.76,0,0,1,9.6.55,25.74,25.74,0,0,1,8.67,2.52,16.47,16.47,0,0,1,6.29,5.49c1.59,2.36,2.4,5.59,2.4,9.69a16.45,16.45,0,0,1-2,8.37,17.92,17.92,0,0,1-5.35,5.87,23.42,23.42,0,0,1-7.67,3.44,35.46,35.46,0,0,1-8.95,1.12c-1.23,0-2.68,0-4.34-.09l-4.81-.19c-1.54-.06-3-.15-4.34-.27a10.84,10.84,0,0,1-2.94-.57Z"/><path class="cls-1" d="M209.26,555.67a51.46,51.46,0,0,1-14.29,1.7,36.32,36.32,0,0,1-15.9-3.3,31.72,31.72,0,0,1-11.47-9.24,40,40,0,0,1-6.87-14.33,71.46,71.46,0,0,1-2.25-18.56q0-23.37,9.5-34.49t25.11-11.12a93.28,93.28,0,0,1,14.39.94,37.79,37.79,0,0,1,10.25,3l5.08-21.82a71.15,71.15,0,0,0-12.89-3.57,103,103,0,0,0-19.09-1.51,66.8,66.8,0,0,0-21.07,3.49,51.4,51.4,0,0,0-19.09,11.47q-8.56,8-13.92,21.07t-5.36,32.45q0,18.61,4.8,31.69t12.88,21.26a48,48,0,0,0,18.72,11.85,68.24,68.24,0,0,0,22.48,3.67,97.23,97.23,0,0,0,19.09-1.87,39.41,39.41,0,0,0,15.33-6.16l-5.27-20.94A41.38,41.38,0,0,1,209.26,555.67Z"/></g></g></g></svg>